<?xml version="1.0" encoding="utf-8"?>
<!-- Generator: Adobe Illustrator 21.1.0, SVG Export Plug-In . SVG Version: 6.00 Build 0)  -->
<svg version="1.1" id="Camada_1" xmlns="http://www.w3.org/2000/svg" xmlns:xlink="http://www.w3.org/1999/xlink" x="0px" y="0px"
	 viewBox="0 0 3375.1 1000" style="enable-background:new 0 0 3375.1 1000;" xml:space="preserve">
<style type="text/css">
	.st0{fill:#BB0D31;}
	.st1{fill:#980E26;}
</style>
<g>
	<g>
		<path d="M3247.8,429.9c0-24.2,18.5-41,54.8-41c17.3,0,35.9,3,52.7,8.2l2.6-41.9c-17.7-3-35.4-5.2-52.7-5.2
			c-67.8,0-107.1,35-107.1,85c0,94.1,127.4,68.2,127.3,129.5c0,31.5-25.9,44.9-57.8,44.9c-21.2,0-44-4.7-60.4-10.8l-2.6,44.5
			c16.8,4.3,37.5,6.9,58.7,6.9c69.5,0,111.8-38.9,111.8-92.4C3375.1,466.6,3247.8,488.1,3247.8,429.9z"/>
		<path d="M3051.2,350v185.3c0,55.2-21.9,75.3-70.1,75.3c-54.8,0-67.9-29.8-67.9-69.2V350h-47.7v194.9
			c0,54.3,19.7,105.1,112.6,105.1c77.5,0,120-39.4,120-118.3V350H3051.2z"/>
		<path d="M2739.9,593.8c-16.1,7.8-41.8,13.5-61.8,13.5c-64,0-93.2-38.8-93.2-107.1c0-61.4,27.9-108.4,89.3-108.4
			c21.3,0,42.2,3.5,63.6,10l5.2-43.5c-20.5-4.8-43.1-8.3-64.9-8.3c-98.8,0-145,66.6-145,158.1c0,78.4,36.1,141.9,134.6,141.9
			c28.3,0,55.7-5.2,77.9-13.9L2739.9,593.8z"/>
		<rect x="2364.6" y="350" width="48.4" height="300"/>
		<path d="M2166,546.2c-7.5-9.7-16.8-21.2-25.2-31.8c48.6-5.3,84.4-35.8,84.4-83.5c0-59.2-42.4-80.9-104.3-80.9
			c-33.6,0-58.3,0.4-80,1.8V650h48.1V521h2.2l92.8,129h60.5L2166,546.2z M2089.1,484.8v-94.6c7.1-0.4,15.9-0.9,25.2-0.9
			c40.2,0,60.5,14.1,60.5,46.8c0,29.6-23.4,49.5-62.3,49.5C2101.9,485.6,2093.5,485.2,2089.1,484.8z"/>
		<rect x="1872.5" y="350" width="48.4" height="300"/>
		<path d="M1643,350c-27.8,0-53.5,0.9-76.4,1.8V650h48.2V540c7.5,0.9,15.5,0.9,22.1,0.9c69.4,0,115.8-43.3,115.8-101.2
			C1752.5,384.5,1713.7,350,1643,350z M1635.9,501.1c-7.1,0-14.6-0.9-21.2-1.8V390.2c7.9-0.9,15.5-0.9,24.7-0.9
			c43.3,0,63.2,20.3,63.2,54.3C1702.6,478.6,1676.1,500.7,1635.9,501.1z"/>
		<path d="M1395.4,650l-23.6-159.6c-4.9-32-7.1-53.8-9.3-73.3h-0.9c-3.6,16.9-8,36.4-15.6,58.7L1289.7,650h-50.2l-53.8-161.8
			c-8-23.5-15.6-49.3-19.1-71.1h-0.9c-1.8,25.8-4.9,49.3-8,77.8L1138.5,650h-49.3l44.9-300h57.8l57.8,173.3
			c7.1,21.8,12.9,41.8,16.4,61.3h0.9c4.5-22.2,9.3-37.3,16.4-59.6l59.1-175.1h58.2l45.8,300L1395.4,650L1395.4,650z"/>
		<polygon points="811,350 969.2,350 969.2,390.4 859.4,390.4 859.4,475.8 963.9,475.8 963.9,515.3 859.4,515.3 859.4,608.7 
			969.2,608.7 969.2,650 811,650 		"/>
	</g>
	<g>
		<path class="st0" d="M559.3,888.9C539.9,762.8,534,635.1,541.7,508c0.9-14.7-3.8-23.2-10.8-19.1c-5.1,2.9-10.2,5.9-15.4,8.7
			c4.5-64.4,12.1-128.6,22.8-192.4c3.4-20.5-2.5-29.5-13.7-20.5c-24.7,19.8-49.2,38.8-73.5,57.1c18.7-109.5,47.8-217.7,87.3-323
			c8.3-22.2,1.5-25-15.7-6.7C464,74.3,406.5,133.6,350.2,189.8c-16.4,16.6-34.1,41.9-39.3,57.2c-6.7,19.7-12.8,39.5-18.4,59.5
			c-44.2,38.9-87.6,75.6-130.5,110.1c-19.1,15.6-37.1,38.2-39.9,51.1c-3.1,14.2-5.9,28.4-8.2,42.7c-26,19.3-51.7,37.5-77.1,54.6
			C21,575.8,7,590.7,5.7,598.9c-11.9,73.4-5,149.1,20.8,219.9c2.9,7.9,19.4,26.6,36.4,41.4c58.2,49.8,114.4,94.5,169,134.1
			c5.3,3.9,9.6,5.8,12.8,5.8c6.4,0,8.2-7.6,4.1-21c-8.8-28.5-16.4-57.2-22.7-86.2c38.1,19.2,75.7,36.3,112.9,51.2
			c17,7.1,26.2-8.1,21.6-33.4c-14.3-77.7-22.4-156.3-24.3-235c11.7-2.3,23.4-4.8,35.1-7.6c1,56.8,5,113.5,12.1,169.9
			c2,16.1,12,30.4,21.8,31.7c20.7,2.6,41.4,4.5,62,5.7l0.1,0.5c2.1,12.1,9.4,23.3,16.1,24.9c22.9,5.3,45.6,9.5,68.2,12.8
			C558.2,914.6,561.5,903.5,559.3,888.9z"/>
		<path class="st1" d="M520.3,839.8C509,726,507.6,611.6,515.6,497.6c-18.7,10.5-37.4,20.2-55.9,29.4c-6.8,3.5-13,16.1-13.4,28.4
			c-4.3,107,2.6,214.3,21,320.1c13.1,0.8,26.3,1.2,39.4,1.4C516.4,877.1,522.3,860.4,520.3,839.8z"/>
		<path class="st1" d="M411.1,371.2c-10.9,8-21.7,27.2-24,43.2c-11.9,84.1-17.2,168.9-15.8,253.6c10.4-2.5,21-5.1,31.4-7.9
			c12.8-3.3,23-25.2,23.3-48.5c1.4-90.4,9.9-180.6,25.1-270C437.9,351.8,424.4,361.7,411.1,371.2z"/>
		<path class="st1" d="M362.4,243.3C339,265,315.6,286,292.5,306.5C260.1,422,244.8,541,246.8,659.8c0.2,15.8,11.2,27.9,23.9,26.4
			c21.8-2.7,43.8-6.2,65.6-10.5c-3.4-141.5,13.1-283.4,49.6-421.4C392.6,229.3,382.4,224.7,362.4,243.3z"/>
		<path class="st1" d="M224.1,451.8c2.7-12.5,0.1-19.1-6-19.1c-3.9,0-9.2,2.6-15.5,7.9c-29.9,24.7-59.5,48-88.7,69.8
			c-16.6,101.3-13.6,205.2,9.2,305.6c2.9,12.9,20,32,37.6,42.2c21.8,12.3,43.9,23.8,65.4,34.7C194.4,747.5,193.5,597.2,224.1,451.8z
			"/>
	</g>
</g>
</svg>
